<svg width="457" height="457" viewBox="0 0 457 457" fill="none" xmlns="http://www.w3.org/2000/svg">
<circle cx="228.5" cy="228.5" r="226" stroke="white" stroke-width="5" stroke-linejoin="round" stroke-dasharray="4 8 12 16"/>
<circle cx="228.137" cy="228.137" r="171.137" stroke="white" stroke-width="2" stroke-dasharray="4 8 12 16"/>
<path d="M338.38 216.954C338.646 219.869 338.809 222.816 338.863 225.79L338.363 225.799C338.377 226.535 338.383 227.272 338.383 228.012C338.383 228.751 338.377 229.488 338.363 230.224L338.863 230.233C338.754 236.23 338.204 242.114 337.246 247.853L336.753 247.77C336.02 252.16 335.047 256.463 333.849 260.666L334.33 260.803C333.516 263.656 332.599 266.463 331.583 269.219L331.114 269.046C330.605 270.428 330.07 271.796 329.512 273.151L329.974 273.342C327.706 278.843 325.038 284.123 322.008 289.142L321.58 288.884C319.292 292.674 316.796 296.315 314.11 299.788L314.506 300.094C312.696 302.434 310.8 304.699 308.823 306.883L308.453 306.548C307.466 307.638 306.459 308.708 305.432 309.757L305.789 310.107C301.651 314.336 297.194 318.228 292.46 321.741L292.162 321.34C288.623 323.966 284.928 326.379 281.095 328.561L281.343 328.996C278.781 330.454 276.158 331.81 273.478 333.058L273.267 332.605C271.936 333.224 270.592 333.817 269.235 334.382L269.427 334.844C264.012 337.098 258.387 338.919 252.589 340.266L252.476 339.779C248.219 340.768 243.869 341.499 239.442 341.957L239.493 342.455C236.581 342.756 233.637 342.939 230.663 343.001L230.653 342.501C229.917 342.516 229.18 342.523 228.442 342.523C227.703 342.523 226.966 342.516 226.231 342.501L226.22 343.001C220.226 342.877 214.349 342.257 208.626 341.177L208.719 340.686C204.357 339.863 200.085 338.772 195.918 337.43L195.765 337.906C192.946 336.998 190.174 335.975 187.457 334.844L187.649 334.382C186.291 333.817 184.947 333.224 183.617 332.605L183.406 333.058C178.041 330.56 172.902 327.629 168.031 324.308L168.312 323.895C164.672 321.413 161.181 318.712 157.858 315.811L157.529 316.187C155.308 314.248 153.161 312.22 151.094 310.107L151.451 309.757C150.425 308.708 149.417 307.638 148.431 306.548L148.06 306.883C144.115 302.525 140.493 297.846 137.235 292.887L137.653 292.613C135.243 288.946 133.033 285.126 131.038 281.169L130.592 281.394C129.268 278.768 128.039 276.083 126.909 273.342L127.371 273.151C126.813 271.796 126.279 270.428 125.769 269.046L125.3 269.219C123.279 263.737 121.65 258.052 120.447 252.203L120.937 252.102C120.058 247.826 119.408 243.462 119.002 239.024L118.504 239.069C118.237 236.154 118.074 233.208 118.02 230.233L118.52 230.224C118.507 229.488 118.5 228.751 118.5 228.012C118.5 227.272 118.507 226.535 118.52 225.799L118.02 225.79C118.129 219.793 118.679 213.909 119.637 208.171L120.13 208.253C120.863 203.864 121.836 199.56 123.035 195.358L122.554 195.221C123.367 192.367 124.284 189.56 125.3 186.804L125.769 186.977C126.279 185.596 126.813 184.227 127.371 182.872L126.909 182.682C129.177 177.18 131.845 171.9 134.875 166.881L135.303 167.139C137.591 163.349 140.087 159.709 142.773 156.235L142.378 155.929C144.187 153.589 146.083 151.324 148.06 149.14L148.431 149.475C149.417 148.385 150.425 147.315 151.451 146.266L151.094 145.916C155.232 141.687 159.689 137.795 164.423 134.282L164.721 134.684C168.26 132.057 171.955 129.644 175.788 127.462L175.541 127.028C178.103 125.569 180.726 124.213 183.406 122.966L183.617 123.419C184.947 122.799 186.291 122.207 187.649 121.641L187.457 121.18C192.871 118.925 198.497 117.104 204.294 115.757L204.407 116.244C208.664 115.256 213.014 114.524 217.442 114.066L217.39 113.569C220.302 113.267 223.247 113.084 226.22 113.023L226.231 113.523C226.966 113.508 227.703 113.5 228.442 113.5C229.18 113.5 229.917 113.508 230.653 113.523L230.663 113.023C236.657 113.146 242.534 113.766 248.257 114.846L248.165 115.337C252.527 116.16 256.799 117.251 260.965 118.593L261.118 118.117C263.938 119.025 266.709 120.048 269.427 121.18L269.235 121.641C270.592 122.207 271.936 122.799 273.267 123.419L273.478 122.966C278.843 125.464 283.981 128.395 288.853 131.716L288.571 132.129C292.211 134.61 295.702 137.311 299.025 140.213L299.354 139.836C301.575 141.775 303.722 143.804 305.789 145.916L305.432 146.266C306.459 147.315 307.466 148.385 308.453 149.475L308.823 149.14C312.768 153.498 316.39 158.178 319.649 163.136L319.231 163.411C321.64 167.077 323.85 170.897 325.845 174.854L326.291 174.629C327.615 177.255 328.844 179.941 329.974 182.682L329.512 182.872C330.07 184.227 330.605 185.596 331.114 186.977L331.583 186.804C333.604 192.287 335.234 197.971 336.436 203.82L335.946 203.921C336.825 208.197 337.475 212.561 337.882 217L338.38 216.954Z" stroke="white" stroke-dasharray="4 8 12 16"/>
<path d="M191.47 181.63L197.584 183.617L195.598 189.731L189.484 187.744L191.47 181.63ZM197.584 183.617L203.698 185.603L201.712 191.717L195.598 189.731L197.584 183.617ZM195.598 189.731L201.712 191.717L199.725 197.831L193.611 195.845L195.598 189.731ZM193.611 195.845L199.725 197.831L197.739 203.945L191.625 201.959L193.611 195.845ZM191.625 201.959L197.739 203.945L195.752 210.059L189.638 208.073L191.625 201.959ZM185.511 199.972L191.625 201.959L189.638 208.073L183.524 206.086L185.511 199.972ZM187.497 193.858L193.611 195.845L191.625 201.959L185.511 199.972L187.497 193.858ZM189.484 187.744L195.598 189.731L193.611 195.845L187.497 193.858L189.484 187.744ZM183.524 206.086L189.638 208.073L187.652 214.187L181.538 212.2L183.524 206.086ZM181.538 212.2L187.652 214.187L185.665 220.301L179.551 218.314L181.538 212.2ZM179.551 218.314L185.665 220.301L183.678 226.414L177.564 224.428L179.551 218.314ZM187.652 214.187L193.765 216.173L191.779 222.287L185.665 220.301L187.652 214.187ZM189.638 208.073L195.752 210.059L193.765 216.173L187.652 214.187L189.638 208.073ZM185.665 220.301L191.779 222.287L189.792 228.401L183.678 226.414L185.665 220.301ZM183.678 226.414L189.792 228.401L187.806 234.515L181.692 232.528L183.678 226.414ZM175.578 230.542L181.692 232.528L179.705 238.642L173.591 236.656L175.578 230.542ZM177.564 224.428L183.678 226.414L181.692 232.528L175.578 230.542L177.564 224.428ZM173.591 236.656L179.705 238.642L177.719 244.756L171.605 242.77L173.591 236.656ZM179.705 238.642L185.819 240.629L183.833 246.743L177.719 244.756L179.705 238.642ZM181.692 232.528L187.806 234.515L185.819 240.629L179.705 238.642L181.692 232.528ZM203.698 185.603L209.812 187.59L207.826 193.704L201.712 191.717L203.698 185.603ZM209.812 187.59L215.926 189.577L213.939 195.69L207.826 193.704L209.812 187.59ZM215.926 189.577L222.04 191.563L220.053 197.677L213.939 195.69L215.926 189.577ZM222.04 191.563L228.154 193.55L226.167 199.664L220.053 197.677L222.04 191.563ZM213.939 195.69L220.053 197.677L218.067 203.791L211.953 201.804L213.939 195.69ZM207.826 193.704L213.939 195.69L211.953 201.804L205.839 199.818L207.826 193.704ZM201.712 191.717L207.826 193.704L205.839 199.818L199.725 197.831L201.712 191.717ZM193.765 216.173L199.879 218.16L197.893 224.274L191.779 222.287L193.765 216.173ZM201.866 212.046L207.98 214.032L205.993 220.146L199.879 218.16L201.866 212.046ZM195.752 210.059L201.866 212.046L199.879 218.16L193.765 216.173L195.752 210.059ZM199.879 218.16L205.993 220.146L204.007 226.26L197.893 224.274L199.879 218.16ZM220.053 197.677L226.167 199.664L224.181 205.777L218.067 203.791L220.053 197.677ZM207.98 214.032L214.094 216.019L212.107 222.133L205.993 220.146L207.98 214.032ZM205.993 220.146L212.107 222.133L210.121 228.247L204.007 226.26L205.993 220.146ZM246.496 199.509L252.61 201.496L250.623 207.61L244.509 205.623L246.496 199.509ZM240.382 197.523L246.496 199.509L244.509 205.623L238.395 203.637L240.382 197.523ZM238.395 203.637L244.509 205.623L242.523 211.737L236.409 209.751L238.395 203.637ZM244.509 205.623L250.623 207.61L248.637 213.724L242.523 211.737L244.509 205.623ZM250.623 207.61L256.737 209.596L254.75 215.71L248.637 213.724L250.623 207.61ZM252.61 201.496L258.724 203.482L256.737 209.596L250.623 207.61L252.61 201.496ZM258.724 203.482L264.837 205.469L262.851 211.583L256.737 209.596L258.724 203.482ZM264.837 205.469L270.951 207.455L268.965 213.569L262.851 211.583L264.837 205.469ZM262.851 211.583L268.965 213.569L266.978 219.683L260.864 217.697L262.851 211.583ZM256.737 209.596L262.851 211.583L260.864 217.697L254.75 215.71L256.737 209.596ZM260.864 217.697L266.978 219.683L264.992 225.797L258.878 223.811L260.864 217.697ZM268.965 213.569L275.079 215.556L273.092 221.67L266.978 219.683L268.965 213.569ZM266.978 219.683L273.092 221.67L271.106 227.784L264.992 225.797L266.978 219.683ZM257.046 250.253L263.16 252.239L261.173 258.353L255.059 256.367L257.046 250.253ZM255.059 256.367L261.173 258.353L259.187 264.467L253.073 262.481L255.059 256.367ZM248.945 254.38L255.059 256.367L253.073 262.481L246.959 260.494L248.945 254.38ZM250.932 248.266L257.046 250.253L255.059 256.367L248.945 254.38L250.932 248.266ZM242.831 252.394L248.945 254.38L246.959 260.494L240.845 258.508L242.831 252.394ZM246.959 260.494L253.073 262.481L251.086 268.595L244.972 266.608L246.959 260.494ZM240.845 258.508L246.959 260.494L244.972 266.608L238.858 264.622L240.845 258.508ZM234.731 256.521L240.845 258.508L238.858 264.622L232.744 262.635L234.731 256.521ZM236.717 250.407L242.831 252.394L240.845 258.508L234.731 256.521L236.717 250.407ZM228.617 254.535L234.731 256.521L232.744 262.635L226.63 260.649L228.617 254.535ZM222.503 252.548L228.617 254.535L226.63 260.649L220.516 258.662L222.503 252.548ZM224.489 246.434L230.603 248.421L228.617 254.535L222.503 252.548L224.489 246.434ZM230.603 248.421L236.717 250.407L234.731 256.521L228.617 254.535L230.603 248.421ZM232.59 242.307L238.704 244.293L236.717 250.407L230.603 248.421L232.59 242.307ZM226.476 240.32L232.59 242.307L230.603 248.421L224.489 246.434L226.476 240.32ZM218.375 244.448L224.489 246.434L222.503 252.548L216.389 250.562L218.375 244.448ZM220.362 238.334L226.476 240.32L224.489 246.434L218.375 244.448L220.362 238.334ZM222.349 232.22L228.463 234.206L226.476 240.32L220.362 238.334L222.349 232.22ZM224.335 226.106L230.449 228.092L228.463 234.206L222.349 232.22L224.335 226.106ZM226.322 219.992L232.436 221.978L230.449 228.092L224.335 226.106L226.322 219.992ZM228.308 213.878L234.422 215.864L232.436 221.978L226.322 219.992L228.308 213.878ZM230.295 207.764L236.409 209.751L234.422 215.864L228.308 213.878L230.295 207.764ZM236.409 209.751L242.523 211.737L240.536 217.851L234.422 215.864L236.409 209.751ZM232.281 201.65L238.395 203.637L236.409 209.751L230.295 207.764L232.281 201.65ZM242.523 211.737L248.637 213.724L246.65 219.838L240.536 217.851L242.523 211.737ZM234.422 215.864L240.536 217.851L238.55 223.965L232.436 221.978L234.422 215.864ZM232.436 221.978L238.55 223.965L236.563 230.079L230.449 228.092L232.436 221.978ZM230.449 228.092L236.563 230.079L234.576 236.193L228.463 234.206L230.449 228.092ZM228.463 234.206L234.576 236.193L232.59 242.307L226.476 240.32L228.463 234.206ZM259.032 244.139L265.146 246.126L263.16 252.239L257.046 250.253L259.032 244.139ZM252.918 242.152L259.032 244.139L257.046 250.253L250.932 248.266L252.918 242.152ZM254.905 236.039L261.019 238.025L259.032 244.139L252.918 242.152L254.905 236.039ZM261.019 238.025L267.133 240.012L265.146 246.126L259.032 244.139L261.019 238.025ZM263.005 231.911L269.119 233.898L267.133 240.012L261.019 238.025L263.005 231.911ZM256.891 229.925L263.005 231.911L261.019 238.025L254.905 236.039L256.891 229.925ZM250.777 227.938L256.891 229.925L254.905 236.039L248.791 234.052L250.777 227.938ZM244.663 225.952L250.777 227.938L248.791 234.052L242.677 232.065L244.663 225.952ZM242.677 232.065L248.791 234.052L246.804 240.166L240.69 238.179L242.677 232.065ZM248.791 234.052L254.905 236.039L252.918 242.152L246.804 240.166L248.791 234.052Z" fill="white"/>
</svg>
