<svg width="657" height="104" viewBox="0 0 657 104" fill="none" xmlns="http://www.w3.org/2000/svg">
<path d="M81.9206 24.5714H87.0635V29.7143H81.9206V24.5714ZM87.0635 24.5714H92.2063V29.7143H87.0635V24.5714ZM87.0635 29.7143H92.2063V34.8571H87.0635V29.7143ZM87.0635 34.8571H92.2063V40H87.0635V34.8571ZM87.0635 40H92.2063V45.1429H87.0635V40ZM81.9206 40H87.0635V45.1429H81.9206V40ZM81.9206 34.8571H87.0635V40H81.9206V34.8571ZM81.9206 29.7143H87.0635V34.8571H81.9206V29.7143ZM81.9206 45.1429H87.0635V50.2857H81.9206V45.1429ZM81.9206 50.2857H87.0635V55.4286H81.9206V50.2857ZM81.9206 55.4286H87.0635V60.5714H81.9206V55.4286ZM87.0635 50.2857H92.2063V55.4286H87.0635V50.2857ZM87.0635 45.1429H92.2063V50.2857H87.0635V45.1429ZM87.0635 55.4286H92.2063V60.5714H87.0635V55.4286ZM87.0635 60.5714H92.2063V65.7143H87.0635V60.5714ZM81.9206 65.7143H87.0635V70.8571H81.9206V65.7143ZM81.9206 60.5714H87.0635V65.7143H81.9206V60.5714ZM81.9206 70.8571H87.0635V76H81.9206V70.8571ZM87.0635 70.8571H92.2063V76H87.0635V70.8571ZM87.0635 65.7143H92.2063V70.8571H87.0635V65.7143ZM92.2063 24.5714H97.3492V29.7143H92.2063V24.5714ZM97.3492 24.5714H102.492V29.7143H97.3492V24.5714ZM102.492 24.5714H107.635V29.7143H102.492V24.5714ZM107.635 24.5714H112.778V29.7143H107.635V24.5714ZM102.492 29.7143H107.635V34.8571H102.492V29.7143ZM97.3492 29.7143H102.492V34.8571H97.3492V29.7143ZM92.2063 29.7143H97.3492V34.8571H92.2063V29.7143ZM92.2063 50.2857H97.3492V55.4286H92.2063V50.2857ZM97.3492 45.1429H102.492V50.2857H97.3492V45.1429ZM92.2063 45.1429H97.3492V50.2857H92.2063V45.1429ZM97.3492 50.2857H102.492V55.4286H97.3492V50.2857ZM107.635 29.7143H112.778V34.8571H107.635V29.7143ZM102.492 45.1429H107.635V50.2857H102.492V45.1429ZM102.492 50.2857H107.635V55.4286H102.492V50.2857ZM120.801 40H125.943V45.1429H120.801V40ZM120.801 34.8571H125.943V40H120.801V34.8571ZM125.943 34.8571H131.086V40H125.943V34.8571ZM125.943 40H131.086V45.1429H125.943V40ZM125.943 45.1429H131.086V50.2857H125.943V45.1429ZM125.943 50.2857H131.086V55.4286H125.943V50.2857ZM125.943 55.4286H131.086V60.5714H125.943V55.4286ZM120.801 55.4286H125.943V60.5714H120.801V55.4286ZM120.801 50.2857H125.943V55.4286H120.801V50.2857ZM120.801 45.1429H125.943V50.2857H120.801V45.1429ZM120.801 60.5714H125.943V65.7143H120.801V60.5714ZM125.943 60.5714H131.086V65.7143H125.943V60.5714ZM125.943 65.7143H131.086V70.8571H125.943V65.7143ZM125.943 70.8571H131.086V76H125.943V70.8571ZM120.801 70.8571H125.943V76H120.801V70.8571ZM120.801 65.7143H125.943V70.8571H120.801V65.7143ZM131.086 40H136.229V45.1429H131.086V40ZM136.229 40H141.372V45.1429H136.229V40ZM141.372 40H146.515V45.1429H141.372V40ZM141.372 34.8571H146.515V40H141.372V34.8571ZM136.229 34.8571H141.372V40H136.229V34.8571ZM131.086 45.1429H136.229V50.2857H131.086V45.1429ZM146.515 40H151.658V45.1429H146.515V40ZM141.372 45.1429H146.515V50.2857H141.372V45.1429ZM169.966 34.8571H175.109V40H169.966V34.8571ZM164.823 34.8571H169.966V40H164.823V34.8571ZM164.823 40H169.966V45.1429H164.823V40ZM169.966 40H175.109V45.1429H169.966V40ZM175.109 34.8571H180.252V40H175.109V34.8571ZM180.252 34.8571H185.395V40H180.252V34.8571ZM185.395 34.8571H190.538V40H185.395V34.8571ZM185.395 40H190.538V45.1429H185.395V40ZM180.252 40H185.395V45.1429H180.252V40ZM185.395 50.2857H190.538V55.4286H185.395V50.2857ZM190.538 40H195.681V45.1429H190.538V40ZM190.538 45.1429H195.681V50.2857H190.538V45.1429ZM190.538 50.2857H195.681V55.4286H190.538V50.2857ZM190.538 55.4286H195.681V60.5714H190.538V55.4286ZM190.538 60.5714H195.681V65.7143H190.538V60.5714ZM190.538 65.7143H195.681V70.8571H190.538V65.7143ZM185.395 65.7143H190.538V70.8571H185.395V65.7143ZM185.395 60.5714H190.538V65.7143H185.395V60.5714ZM185.395 55.4286H190.538V60.5714H185.395V55.4286ZM185.395 45.1429H190.538V50.2857H185.395V45.1429ZM180.252 65.7143H185.395V70.8571H180.252V65.7143ZM185.395 70.8571H190.538V76H185.395V70.8571ZM180.252 70.8571H185.395V76H180.252V70.8571ZM175.109 70.8571H180.252V76H175.109V70.8571ZM169.966 70.8571H175.109V76H169.966V70.8571ZM164.823 70.8571H169.966V76H164.823V70.8571ZM164.823 65.7143H169.966V70.8571H164.823V65.7143ZM169.966 65.7143H175.109V70.8571H169.966V65.7143ZM164.823 60.5714H169.966V65.7143H164.823V60.5714ZM159.681 65.7143H164.823V70.8571H159.681V65.7143ZM159.681 60.5714H164.823V65.7143H159.681V60.5714ZM159.681 55.4286H164.823V60.5714H159.681V55.4286ZM159.681 50.2857H164.823V55.4286H159.681V50.2857ZM159.681 45.1429H164.823V50.2857H159.681V45.1429ZM159.681 40H164.823V45.1429H159.681V40ZM164.823 45.1429H169.966V50.2857H164.823V45.1429ZM164.823 50.2857H169.966V55.4286H164.823V50.2857ZM164.823 55.4286H169.966V60.5714H164.823V55.4286ZM175.109 65.7143H180.252V70.8571H175.109V65.7143ZM175.109 40H180.252V45.1429H175.109V40ZM203.717 40H208.86V45.1429H203.717V40ZM203.717 34.8571H208.86V40H203.717V34.8571ZM208.86 34.8571H214.003V40H208.86V34.8571ZM208.86 40H214.003V45.1429H208.86V40ZM208.86 45.1429H214.003V50.2857H208.86V45.1429ZM208.86 50.2857H214.003V55.4286H208.86V50.2857ZM208.86 55.4286H214.003V60.5714H208.86V55.4286ZM203.717 55.4286H208.86V60.5714H203.717V55.4286ZM203.717 50.2857H208.86V55.4286H203.717V50.2857ZM203.717 45.1429H208.86V50.2857H203.717V45.1429ZM203.717 60.5714H208.86V65.7143H203.717V60.5714ZM208.86 60.5714H214.003V65.7143H208.86V60.5714ZM208.86 65.7143H214.003V70.8571H208.86V65.7143ZM208.86 70.8571H214.003V76H208.86V70.8571ZM203.717 70.8571H208.86V76H203.717V70.8571ZM203.717 65.7143H208.86V70.8571H203.717V65.7143ZM229.431 70.8571H234.574V76H229.431V70.8571ZM234.574 70.8571H239.717V76H234.574V70.8571ZM234.574 65.7143H239.717V70.8571H234.574V65.7143ZM234.574 60.5714H239.717V65.7143H234.574V60.5714ZM234.574 55.4286H239.717V60.5714H234.574V55.4286ZM234.574 50.2857H239.717V55.4286H234.574V50.2857ZM234.574 45.1429H239.717V50.2857H234.574V45.1429ZM234.574 40H239.717V45.1429H234.574V40ZM229.431 50.2857H234.574V55.4286H229.431V50.2857ZM229.431 55.4286H234.574V60.5714H229.431V55.4286ZM229.431 60.5714H234.574V65.7143H229.431V60.5714ZM229.431 65.7143H234.574V70.8571H229.431V65.7143ZM229.431 45.1429H234.574V50.2857H229.431V45.1429ZM214.003 40H219.145V45.1429H214.003V40ZM219.145 40H224.288V45.1429H219.145V40ZM224.288 40H229.431V45.1429H224.288V40ZM224.288 34.8571H229.431V40H224.288V34.8571ZM229.431 34.8571H234.574V40H229.431V34.8571ZM229.431 40H234.574V45.1429H229.431V40ZM219.145 34.8571H224.288V40H219.145V34.8571ZM268.325 65.7143H273.467V70.8571H268.325V65.7143ZM268.325 70.8571H273.467V76H268.325V70.8571ZM263.182 70.8571H268.325V76H263.182V70.8571ZM263.182 65.7143H268.325V70.8571H263.182V65.7143ZM258.039 70.8571H263.182V76H258.039V70.8571ZM258.039 65.7143H263.182V70.8571H258.039V65.7143ZM252.896 65.7143H258.039V70.8571H252.896V65.7143ZM252.896 60.5714H258.039V65.7143H252.896V60.5714ZM252.896 55.4286H258.039V60.5714H252.896V55.4286ZM252.896 50.2857H258.039V55.4286H252.896V50.2857ZM252.896 45.1429H258.039V50.2857H252.896V45.1429ZM252.896 40H258.039V45.1429H252.896V40ZM258.039 55.4286H263.182V60.5714H258.039V55.4286ZM258.039 60.5714H263.182V65.7143H258.039V60.5714ZM258.039 50.2857H263.182V55.4286H258.039V50.2857ZM258.039 45.1429H263.182V50.2857H258.039V45.1429ZM258.039 24.5714H263.182V29.7143H258.039V24.5714ZM258.039 29.7143H263.182V34.8571H258.039V29.7143ZM258.039 34.8571H263.182V40H258.039V34.8571ZM258.039 40H263.182V45.1429H258.039V40ZM252.896 34.8571H258.039V40H252.896V34.8571ZM247.753 40H252.896V45.1429H247.753V40ZM263.182 40H268.325V45.1429H263.182V40ZM268.325 40H273.467V45.1429H268.325V40ZM252.896 29.7143H258.039V34.8571H252.896V29.7143ZM247.753 45.1429H252.896V50.2857H247.753V45.1429ZM263.182 45.1429H268.325V50.2857H263.182V45.1429ZM268.325 45.1429H273.467V50.2857H268.325V45.1429ZM291.763 34.8571H296.905V40H291.763V34.8571ZM286.62 34.8571H291.763V40H286.62V34.8571ZM286.62 40H291.763V45.1429H286.62V40ZM291.763 40H296.905V45.1429H291.763V40ZM296.905 34.8571H302.048V40H296.905V34.8571ZM302.048 34.8571H307.191V40H302.048V34.8571ZM307.191 34.8571H312.334V40H307.191V34.8571ZM307.191 40H312.334V45.1429H307.191V40ZM302.048 40H307.191V45.1429H302.048V40ZM312.334 40H317.477V45.1429H312.334V40ZM312.334 45.1429H317.477V50.2857H312.334V45.1429ZM312.334 65.7143H317.477V70.8571H312.334V65.7143ZM307.191 65.7143H312.334V70.8571H307.191V65.7143ZM307.191 45.1429H312.334V50.2857H307.191V45.1429ZM302.048 65.7143H307.191V70.8571H302.048V65.7143ZM307.191 70.8571H312.334V76H307.191V70.8571ZM302.048 70.8571H307.191V76H302.048V70.8571ZM296.905 70.8571H302.048V76H296.905V70.8571ZM291.763 70.8571H296.905V76H291.763V70.8571ZM286.62 70.8571H291.763V76H286.62V70.8571ZM286.62 65.7143H291.763V70.8571H286.62V65.7143ZM291.763 65.7143H296.905V70.8571H291.763V65.7143ZM286.62 60.5714H291.763V65.7143H286.62V60.5714ZM281.477 65.7143H286.62V70.8571H281.477V65.7143ZM281.477 60.5714H286.62V65.7143H281.477V60.5714ZM281.477 55.4286H286.62V60.5714H281.477V55.4286ZM281.477 50.2857H286.62V55.4286H281.477V50.2857ZM281.477 45.1429H286.62V50.2857H281.477V45.1429ZM281.477 40H286.62V45.1429H281.477V40ZM286.62 45.1429H291.763V50.2857H286.62V45.1429ZM286.62 50.2857H291.763V55.4286H286.62V50.2857ZM286.62 55.4286H291.763V60.5714H286.62V55.4286ZM296.905 65.7143H302.048V70.8571H296.905V65.7143ZM296.905 40H302.048V45.1429H296.905V40ZM307.191 50.2857H312.334V55.4286H307.191V50.2857ZM312.334 50.2857H317.477V55.4286H312.334V50.2857ZM291.763 55.4286H296.905V60.5714H291.763V55.4286ZM296.905 55.4286H302.048V60.5714H296.905V55.4286ZM302.048 55.4286H307.191V60.5714H302.048V55.4286ZM307.191 55.4286H312.334V60.5714H307.191V55.4286ZM312.334 55.4286H317.477V60.5714H312.334V55.4286ZM302.048 50.2857H307.191V55.4286H302.048V50.2857ZM296.905 50.2857H302.048V55.4286H296.905V50.2857ZM291.763 50.2857H296.905V55.4286H291.763V50.2857ZM325.513 40H330.656V45.1429H325.513V40ZM325.513 34.8571H330.656V40H325.513V34.8571ZM330.656 34.8571H335.799V40H330.656V34.8571ZM330.656 40H335.799V45.1429H330.656V40ZM330.656 45.1429H335.799V50.2857H330.656V45.1429ZM330.656 50.2857H335.799V55.4286H330.656V50.2857ZM330.656 55.4286H335.799V60.5714H330.656V55.4286ZM325.513 55.4286H330.656V60.5714H325.513V55.4286ZM325.513 50.2857H330.656V55.4286H325.513V50.2857ZM325.513 45.1429H330.656V50.2857H325.513V45.1429ZM325.513 60.5714H330.656V65.7143H325.513V60.5714ZM330.656 60.5714H335.799V65.7143H330.656V60.5714ZM330.656 65.7143H335.799V70.8571H330.656V65.7143ZM330.656 70.8571H335.799V76H330.656V70.8571ZM325.513 70.8571H330.656V76H325.513V70.8571ZM325.513 65.7143H330.656V70.8571H325.513V65.7143ZM351.227 70.8571H356.37V76H351.227V70.8571ZM356.37 70.8571H361.513V76H356.37V70.8571ZM356.37 65.7143H361.513V70.8571H356.37V65.7143ZM356.37 60.5714H361.513V65.7143H356.37V60.5714ZM356.37 55.4286H361.513V60.5714H356.37V55.4286ZM356.37 50.2857H361.513V55.4286H356.37V50.2857ZM356.37 45.1429H361.513V50.2857H356.37V45.1429ZM356.37 40H361.513V45.1429H356.37V40ZM351.227 50.2857H356.37V55.4286H351.227V50.2857ZM351.227 55.4286H356.37V60.5714H351.227V55.4286ZM351.227 60.5714H356.37V65.7143H351.227V60.5714ZM351.227 65.7143H356.37V70.8571H351.227V65.7143ZM351.227 45.1429H356.37V50.2857H351.227V45.1429ZM335.799 40H340.942V45.1429H335.799V40ZM340.942 40H346.085V45.1429H340.942V40ZM346.085 40H351.227V45.1429H346.085V40ZM346.085 34.8571H351.227V40H346.085V34.8571ZM351.227 34.8571H356.37V40H351.227V34.8571ZM351.227 40H356.37V45.1429H351.227V40ZM340.942 34.8571H346.085V40H340.942V34.8571ZM405.549 40V45.1429H400.407V40H405.549ZM405.549 34.8571V40H400.407V34.8571H405.549ZM400.407 34.8571V40H395.264V34.8571H400.407ZM400.407 40V45.1429H395.264V40H400.407ZM400.407 45.1429V50.2857H395.264V45.1429H400.407ZM400.407 50.2857V55.4286H395.264V50.2857H400.407ZM400.407 55.4286V60.5714H395.264V55.4286H400.407ZM405.549 55.4286V60.5714H400.407V55.4286H405.549ZM405.549 50.2857V55.4286H400.407V50.2857H405.549ZM405.549 45.1429V50.2857H400.407V45.1429H405.549ZM405.549 60.5714V65.7143H400.407V60.5714H405.549ZM400.407 60.5714V65.7143H395.264V60.5714H400.407ZM400.407 65.7143V70.8571H395.264V65.7143H400.407ZM400.407 70.8571V76H395.264V70.8571H400.407ZM405.549 70.8571V76H400.407V70.8571H405.549ZM405.549 65.7143V70.8571H400.407V65.7143H405.549ZM379.835 70.8571V76H374.692V70.8571H379.835ZM374.692 65.7143V70.8571H369.549V65.7143H374.692ZM374.692 60.5714V65.7143H369.549V60.5714H374.692ZM374.692 55.4286V60.5714H369.549V55.4286H374.692ZM374.692 50.2857V55.4286H369.549V50.2857H374.692ZM374.692 45.1429V50.2857H369.549V45.1429H374.692ZM374.692 40V45.1429H369.549V40H374.692ZM379.835 50.2857V55.4286H374.692V50.2857H379.835ZM379.835 55.4286V60.5714H374.692V55.4286H379.835ZM379.835 60.5714V65.7143H374.692V60.5714H379.835ZM379.835 65.7143V70.8571H374.692V65.7143H379.835ZM379.835 45.1429V50.2857H374.692V45.1429H379.835ZM384.978 40V45.1429H379.835V40H384.978ZM384.978 34.8571V40H379.835V34.8571H384.978ZM379.835 34.8571V40H374.692V34.8571H379.835ZM379.835 40V45.1429H374.692V40H379.835ZM390.121 34.8571V40H384.978V34.8571H390.121ZM405.549 24.5714V29.7143H400.407V24.5714H405.549ZM400.407 24.5714V29.7143H395.264V24.5714H400.407ZM400.407 29.7143V34.8571H395.264V29.7143H400.407ZM405.549 29.7143V34.8571H400.407V29.7143H405.549ZM390.121 70.8571V76H384.978V70.8571H390.121ZM384.978 70.8571V76H379.835V70.8571H384.978ZM384.978 65.7143V70.8571H379.835V65.7143H384.978ZM390.121 65.7143V70.8571H384.978V65.7143H390.121ZM395.264 65.7143V70.8571H390.121V65.7143H395.264ZM395.264 34.8571V40H390.121V34.8571H395.264ZM395.264 40V45.1429H390.121V40H395.264ZM390.121 40V45.1429H384.978V40H390.121ZM423.871 24.5714H429.014V29.7143H423.871V24.5714ZM418.728 24.5714H423.871V29.7143H418.728V24.5714ZM418.728 29.7143H423.871V34.8571H418.728V29.7143ZM423.871 29.7143H429.014V34.8571H423.871V29.7143ZM429.014 29.7143H434.157V34.8571H429.014V29.7143ZM429.014 24.5714H434.157V29.7143H429.014V24.5714ZM434.157 24.5714H439.3V29.7143H434.157V24.5714ZM439.3 24.5714H444.443V29.7143H439.3V24.5714ZM439.3 29.7143H444.443V34.8571H439.3V29.7143ZM434.157 29.7143H439.3V34.8571H434.157V29.7143ZM439.3 34.8571H444.443V40H439.3V34.8571ZM444.443 29.7143H449.586V34.8571H444.443V29.7143ZM444.443 34.8571H449.586V40H444.443V34.8571ZM444.443 60.5714H449.586V65.7143H444.443V60.5714ZM444.443 65.7143H449.586V70.8571H444.443V65.7143ZM439.3 65.7143H444.443V70.8571H439.3V65.7143ZM439.3 60.5714H444.443V65.7143H439.3V60.5714ZM434.157 65.7143H439.3V70.8571H434.157V65.7143ZM439.3 70.8571H444.443V76H439.3V70.8571ZM434.157 70.8571H439.3V76H434.157V70.8571ZM429.014 70.8571H434.157V76H429.014V70.8571ZM429.014 65.7143H434.157V70.8571H429.014V65.7143ZM423.871 70.8571H429.014V76H423.871V70.8571ZM418.728 70.8571H423.871V76H418.728V70.8571ZM418.728 65.7143H423.871V70.8571H418.728V65.7143ZM423.871 65.7143H429.014V70.8571H423.871V65.7143ZM423.871 60.5714H429.014V65.7143H423.871V60.5714ZM418.728 60.5714H423.871V65.7143H418.728V60.5714ZM413.586 65.7143H418.728V70.8571H413.586V65.7143ZM413.586 60.5714H418.728V65.7143H413.586V60.5714ZM413.586 55.4286H418.728V60.5714H413.586V55.4286ZM413.586 50.2857H418.728V55.4286H413.586V50.2857ZM413.586 45.1429H418.728V50.2857H413.586V45.1429ZM413.586 40H418.728V45.1429H413.586V40ZM413.586 34.8571H418.728V40H413.586V34.8571ZM418.728 34.8571H423.871V40H418.728V34.8571ZM413.586 29.7143H418.728V34.8571H413.586V29.7143ZM423.871 34.8571H429.014V40H423.871V34.8571ZM418.728 40H423.871V45.1429H418.728V40ZM418.728 45.1429H423.871V50.2857H418.728V45.1429ZM418.728 50.2857H423.871V55.4286H418.728V50.2857ZM418.728 55.4286H423.871V60.5714H418.728V55.4286ZM444.443 55.4286H449.586V60.5714H444.443V55.4286ZM439.3 55.4286H444.443V60.5714H439.3V55.4286ZM439.3 50.2857H444.443V55.4286H439.3V50.2857ZM444.443 50.2857H449.586V55.4286H444.443V50.2857ZM444.443 45.1429H449.586V50.2857H444.443V45.1429ZM439.3 45.1429H444.443V50.2857H439.3V45.1429ZM434.157 45.1429H439.3V50.2857H434.157V45.1429ZM429.014 45.1429H434.157V50.2857H429.014V45.1429ZM429.014 50.2857H434.157V55.4286H429.014V50.2857ZM434.157 50.2857H439.3V55.4286H434.157V50.2857ZM488.479 76H483.336V70.8571H488.479V76ZM488.479 70.8571H483.336V65.7143H488.479V70.8571ZM483.336 70.8571H478.193V65.7143H483.336V70.8571ZM478.193 76H473.05V70.8571H478.193V76ZM473.05 76H467.908V70.8571H473.05V76ZM467.908 76H462.765V70.8571H467.908V76ZM467.908 70.8571H462.765V65.7143H467.908V70.8571ZM473.05 70.8571H467.908V65.7143H473.05V70.8571ZM462.765 70.8571H457.622V65.7143H462.765V70.8571ZM462.765 65.7143H457.622V60.5714H462.765V65.7143ZM462.765 45.1429H457.622V40H462.765V45.1429ZM467.908 45.1429H462.765V40H467.908V45.1429ZM467.908 65.7143H462.765V60.5714H467.908V65.7143ZM473.05 45.1429H467.908V40H473.05V45.1429ZM467.908 40H462.765V34.8571H467.908V40ZM473.05 40H467.908V34.8571H473.05V40ZM478.193 40H473.05V34.8571H478.193V40ZM483.336 40H478.193V34.8571H483.336V40ZM488.479 40H483.336V34.8571H488.479V40ZM488.479 45.1429H483.336V40H488.479V45.1429ZM483.336 45.1429H478.193V40H483.336V45.1429ZM488.479 50.2857H483.336V45.1429H488.479V50.2857ZM493.622 45.1429H488.479V40H493.622V45.1429ZM493.622 50.2857H488.479V45.1429H493.622V50.2857ZM493.622 55.4286H488.479V50.2857H493.622V55.4286ZM493.622 60.5714H488.479V55.4286H493.622V60.5714ZM493.622 65.7143H488.479V60.5714H493.622V65.7143ZM493.622 70.8571H488.479V65.7143H493.622V70.8571ZM488.479 65.7143H483.336V60.5714H488.479V65.7143ZM488.479 60.5714H483.336V55.4286H488.479V60.5714ZM488.479 55.4286H483.336V50.2857H488.479V55.4286ZM478.193 45.1429H473.05V40H478.193V45.1429ZM478.193 70.8571H473.05V65.7143H478.193V70.8571ZM488.479 70.8571H493.622V76H488.479V70.8571ZM478.193 50.2857H483.336V55.4286H478.193V50.2857ZM473.05 50.2857H478.193V55.4286H473.05V50.2857ZM467.908 50.2857H473.05V55.4286H467.908V50.2857ZM462.765 50.2857H467.908V55.4286H462.765V50.2857ZM457.622 55.4286H462.765V60.5714H457.622V55.4286ZM462.765 55.4286H467.908V60.5714H462.765V55.4286ZM478.193 55.4286H483.336V60.5714H478.193V55.4286ZM473.05 55.4286H478.193V60.5714H473.05V55.4286ZM467.908 55.4286H473.05V60.5714H467.908V55.4286ZM501.658 24.5714H506.801V29.7143H501.658V24.5714ZM506.801 24.5714H511.944V29.7143H506.801V24.5714ZM506.801 29.7143H511.944V34.8571H506.801V29.7143ZM506.801 34.8571H511.944V40H506.801V34.8571ZM506.801 40H511.944V45.1429H506.801V40ZM506.801 45.1429H511.944V50.2857H506.801V45.1429ZM506.801 50.2857H511.944V55.4286H506.801V50.2857ZM501.658 50.2857H506.801V55.4286H501.658V50.2857ZM501.658 55.4286H506.801V60.5714H501.658V55.4286ZM501.658 60.5714H506.801V65.7143H501.658V60.5714ZM501.658 65.7143H506.801V70.8571H501.658V65.7143ZM501.658 70.8571H506.801V76H501.658V70.8571ZM506.801 70.8571H511.944V76H506.801V70.8571ZM506.801 65.7143H511.944V70.8571H506.801V65.7143ZM506.801 60.5714H511.944V65.7143H506.801V60.5714ZM506.801 55.4286H511.944V60.5714H506.801V55.4286ZM501.658 45.1429H506.801V50.2857H501.658V45.1429ZM501.658 40H506.801V45.1429H501.658V40ZM501.658 34.8571H506.801V40H501.658V34.8571ZM501.658 29.7143H506.801V34.8571H501.658V29.7143ZM550.864 76H545.721V70.8571H550.864V76ZM550.864 70.8571H545.721V65.7143H550.864V70.8571ZM545.721 70.8571H540.578V65.7143H545.721V70.8571ZM540.578 76H535.435V70.8571H540.578V76ZM535.435 76H530.293V70.8571H535.435V76ZM530.293 76H525.15V70.8571H530.293V76ZM530.293 70.8571H525.15V65.7143H530.293V70.8571ZM535.435 70.8571H530.293V65.7143H535.435V70.8571ZM525.15 70.8571H520.007V65.7143H525.15V70.8571ZM525.15 65.7143H520.007V60.5714H525.15V65.7143ZM525.15 45.1429H520.007V40H525.15V45.1429ZM530.293 45.1429H525.15V40H530.293V45.1429ZM530.293 65.7143H525.15V60.5714H530.293V65.7143ZM535.435 45.1429H530.293V40H535.435V45.1429ZM530.293 40H525.15V34.8571H530.293V40ZM535.435 40H530.293V34.8571H535.435V40ZM540.578 40H535.435V34.8571H540.578V40ZM545.721 40H540.578V34.8571H545.721V40ZM550.864 40H545.721V34.8571H550.864V40ZM550.864 45.1429H545.721V40H550.864V45.1429ZM545.721 45.1429H540.578V40H545.721V45.1429ZM550.864 50.2857H545.721V45.1429H550.864V50.2857ZM556.007 45.1429H550.864V40H556.007V45.1429ZM556.007 50.2857H550.864V45.1429H556.007V50.2857ZM556.007 55.4286H550.864V50.2857H556.007V55.4286ZM556.007 60.5714H550.864V55.4286H556.007V60.5714ZM556.007 65.7143H550.864V60.5714H556.007V65.7143ZM556.007 70.8571H550.864V65.7143H556.007V70.8571ZM550.864 65.7143H545.721V60.5714H550.864V65.7143ZM550.864 60.5714H545.721V55.4286H550.864V60.5714ZM550.864 55.4286H545.721V50.2857H550.864V55.4286ZM540.578 45.1429H535.435V40H540.578V45.1429ZM540.578 70.8571H535.435V65.7143H540.578V70.8571ZM550.864 70.8571H556.007V76H550.864V70.8571ZM540.578 50.2857H545.721V55.4286H540.578V50.2857ZM535.435 50.2857H540.578V55.4286H535.435V50.2857ZM530.293 50.2857H535.435V55.4286H530.293V50.2857ZM525.15 50.2857H530.293V55.4286H525.15V50.2857ZM520.007 55.4286H525.15V60.5714H520.007V55.4286ZM525.15 55.4286H530.293V60.5714H525.15V55.4286ZM540.578 55.4286H545.721V60.5714H540.578V55.4286ZM535.435 55.4286H540.578V60.5714H535.435V55.4286ZM530.293 55.4286H535.435V60.5714H530.293V55.4286ZM564.043 65.7143H569.186V70.8571H564.043V65.7143ZM564.043 60.5714H569.186V65.7143H564.043V60.5714ZM569.186 60.5714H574.329V65.7143H569.186V60.5714ZM569.186 65.7143H574.329V70.8571H569.186V65.7143ZM569.186 55.4286H574.329V60.5714H569.186V55.4286ZM574.329 55.4286H579.472V60.5714H574.329V55.4286ZM584.615 55.4286H589.757V60.5714H584.615V55.4286ZM589.757 55.4286H594.9V60.5714H589.757V55.4286ZM589.757 65.7143H594.9V70.8571H589.757V65.7143ZM594.9 65.7143H600.043V70.8571H594.9V65.7143ZM594.9 60.5714H600.043V65.7143H594.9V60.5714ZM574.329 50.2857H579.472V55.4286H574.329V50.2857ZM579.472 50.2857H584.615V55.4286H579.472V50.2857ZM584.615 50.2857H589.757V55.4286H584.615V50.2857ZM584.615 45.1429H589.757V50.2857H584.615V45.1429ZM589.757 45.1429H594.9V50.2857H589.757V45.1429ZM589.757 40H594.9V45.1429H589.757V40ZM589.757 34.8571H594.9V40H589.757V34.8571ZM594.9 34.8571H600.043V40H594.9V34.8571ZM594.9 40H600.043V45.1429H594.9V40ZM574.329 45.1429H579.472V50.2857H574.329V45.1429ZM569.186 45.1429H574.329V50.2857H569.186V45.1429ZM569.186 40H574.329V45.1429H569.186V40ZM569.186 34.8571H574.329V40H569.186V34.8571ZM564.043 34.8571H569.186V40H564.043V34.8571ZM564.043 40H569.186V45.1429H564.043V40ZM574.329 60.5714H579.472V65.7143H574.329V60.5714ZM584.615 60.5714H589.757V65.7143H584.615V60.5714ZM589.757 60.5714H594.9V65.7143H589.757V60.5714ZM574.329 40H579.472V45.1429H574.329V40ZM584.615 40H589.757V45.1429H584.615V40ZM579.472 45.1429H584.615V50.2857H579.472V45.1429ZM579.472 55.4286H584.615V60.5714H579.472V55.4286ZM564.043 70.8571H569.186V76H564.043V70.8571ZM569.186 70.8571H574.329V76H569.186V70.8571ZM589.757 70.8571H594.9V76H589.757V70.8571ZM594.9 70.8571H600.043V76H594.9V70.8571ZM608.079 34.8571H613.222V40H608.079V34.8571ZM613.222 34.8571H618.365V40H613.222V34.8571ZM613.222 40H618.365V45.1429H613.222V40ZM613.222 45.1429H618.365V50.2857H613.222V45.1429ZM613.222 50.2857H618.365V55.4286H613.222V50.2857ZM608.079 45.1429H613.222V50.2857H608.079V45.1429ZM608.079 40H613.222V45.1429H608.079V40ZM608.079 50.2857H613.222V55.4286H608.079V50.2857ZM608.079 55.4286H613.222V60.5714H608.079V55.4286ZM613.222 55.4286H618.365V60.5714H613.222V55.4286ZM613.222 60.5714H618.365V65.7143H613.222V60.5714ZM618.365 60.5714H623.508V65.7143H618.365V60.5714ZM618.365 65.7143H623.508V70.8571H618.365V65.7143ZM623.508 65.7143H628.651V70.8571H623.508V65.7143ZM628.651 65.7143H633.794V70.8571H628.651V65.7143ZM628.651 60.5714H633.794V65.7143H628.651V60.5714ZM628.651 55.4286H633.794V60.5714H628.651V55.4286ZM633.794 55.4286H638.936V60.5714H633.794V55.4286ZM633.794 60.5714H638.936V65.7143H633.794V60.5714ZM633.794 50.2857H638.936V55.4286H633.794V50.2857ZM628.651 50.2857H633.794V55.4286H628.651V50.2857ZM628.651 34.8571H633.794V40H628.651V34.8571ZM633.794 34.8571H638.936V40H633.794V34.8571ZM633.794 40H638.936V45.1429H633.794V40ZM633.794 45.1429H638.936V50.2857H633.794V45.1429ZM628.651 40H633.794V45.1429H628.651V40ZM628.651 45.1429H633.794V50.2857H628.651V45.1429ZM623.508 70.8571H628.651V76H623.508V70.8571ZM618.365 70.8571H623.508V76H618.365V70.8571ZM618.365 76H623.508V81.1429H618.365V76ZM613.222 76H618.365V81.1429H613.222V76ZM613.222 70.8571H618.365V76H613.222V70.8571ZM613.222 81.1429H618.365V86.2857H613.222V81.1429ZM608.079 81.1429H613.222V86.2857H608.079V81.1429ZM608.079 76H613.222V81.1429H608.079V76ZM623.508 60.5714H628.651V65.7143H623.508V60.5714ZM618.365 55.4286H623.508V60.5714H618.365V55.4286Z" fill="white"/>
<path d="M57.9416 54.2847C57.9416 59.223 53.9383 63.2263 49 63.2263C44.0616 63.2263 40.0583 59.223 40.0583 54.2847C40.0583 49.3464 44.0616 45.3431 49 45.3431C53.9383 45.3431 57.9416 49.3464 57.9416 54.2847ZM40.6642 54.2847C40.6642 58.8884 44.3962 62.6205 49 62.6205C53.6037 62.6205 57.3358 58.8884 57.3358 54.2847C57.3358 49.6809 53.6037 45.9489 49 45.9489C44.3962 45.9489 40.6642 49.6809 40.6642 54.2847Z" fill="white" fill-opacity="0.4"/>
<path d="M66.5256 55C66.5256 64.6791 58.6791 72.5255 49 72.5255C39.3209 72.5255 31.4745 64.6791 31.4745 55C31.4745 45.3209 39.3209 37.4744 49 37.4744C58.6791 37.4744 66.5256 45.3209 66.5256 55ZM32.6619 55C32.6619 64.0233 39.9767 71.3381 49 71.3381C58.0234 71.3381 65.3382 64.0233 65.3382 55C65.3382 45.9767 58.0234 38.6618 49 38.6618C39.9767 38.6618 32.6619 45.9767 32.6619 55Z" fill="white" fill-opacity="0.4"/>
<path d="M92.5252 77.5069C87.9183 86.4158 80.6887 93.6965 71.8124 98.3658C62.9361 103.035 52.8407 104.868 42.8895 103.618C32.9382 102.367 23.6105 98.0925 16.1657 91.3718C8.72098 84.6512 3.51787 75.8079 1.25897 66.036C-0.999932 56.2642 -0.20581 46.0345 3.5341 36.7284C7.27401 27.4222 13.7796 19.4878 22.1723 13.9966C30.565 8.50544 40.4407 5.72191 50.4657 6.02193C60.4908 6.32194 70.1823 9.69105 78.2317 15.6743L76.8016 17.5982C69.146 11.9076 59.9286 8.70333 50.394 8.41799C40.8594 8.13265 31.4669 10.78 23.4848 16.0026C15.5026 21.2251 9.3153 28.7714 5.75835 37.6222C2.2014 46.4731 1.44612 56.2023 3.59451 65.4961C5.74291 74.7899 10.6915 83.2006 17.772 89.5925C24.8525 95.9844 33.724 100.05 43.1884 101.239C52.6528 102.429 62.2543 100.685 70.6964 96.2443C79.1384 91.8034 86.0144 84.8789 90.3959 76.4058L92.5252 77.5069Z" fill="white" fill-opacity="0.4"/>
</svg>
